<?xml version="1.0" encoding="utf-8"?>
<!-- Generator: Adobe Illustrator 16.0.3, SVG Export Plug-In . SVG Version: 6.00 Build 0)  -->
<!DOCTYPE svg PUBLIC "-//W3C//DTD SVG 1.1 Basic//EN" "http://www.w3.org/Graphics/SVG/1.1/DTD/svg11-basic.dtd">
<svg version="1.1" baseProfile="basic" id="Layer_1"
	 xmlns="http://www.w3.org/2000/svg" xmlns:xlink="http://www.w3.org/1999/xlink" x="0px" y="0px" width="1024px" height="1024px"
	 viewBox="0 0 1024 1024" xml:space="preserve">
<g>
	<path fill="#231F20" d="M288.84375,366.17725c1.26172,4.89063,4.98438,6.14404,9.00195,6.69043
		c4.26123,0.57813,8.63525,0.27832,12.92578,0.7124c4.10303,0.41211,8.1416,1.46777,12.24463,1.89111
		c9.79199,1.01221,19.60059,2.29248,29.42383,2.57129c10.82617,0.31055,21.67822-0.41309,32.52002-0.61133
		c2.44824-0.04785,4.90137,0.34277,7.34912,0.32715c7.97607-0.05371,15.95215-0.21436,23.92822-0.30518
		c4.97656-0.06494,9.94727-0.0376,14.91797-0.12891c3.49805-0.05908,6.99561-0.24121,10.49365-0.38037
		c10.90088-0.42871,21.80664-0.78174,32.70264-1.32324c5.16309-0.25635,10.46631-1.84229,15.42139-1.05518
		c4.75098,0.75586,10.10742,2.78613,13.50342,6.02637c10.07617,9.60938,19.42871,19.99609,28.8291,30.28613
		c3.66992,4.00684,6.94238,8.43115,10.00195,12.93115c3.89355,5.72607,7.49805,11.65039,11.03906,17.60693
		c6.92383,11.65088,13.65137,23.41406,20.58789,35.05859c2.33594,3.92139,5.05176,7.61182,7.59668,11.41016
		c0.33203-0.16113,0.66406-0.31641,0.99609-0.47119c0.24023-5.69971,2.25488-11.39941-1.02832-17.03955
		c-1.9502-3.35889-2.87695-7.43506-5.25586-10.3916c-5.86523-7.29639-12.39941-14.05615-18.49023-21.1748
		c-6.06055-7.08154-12.24805-14.08789-17.77051-21.57666c-7.80469-10.59033-11.27539-23.37061-16.53613-35.22998
		c-2.60352-5.85547-5.51758-11.13135-10.73975-14.8916c-5.01416-3.61084-7.8418-8.17432-8.56006-14.55957
		c-1.54297-13.6377-2.50684-27.2168-1.25293-40.9458c1.89063-20.69824,1.4834-41.59375,5.31299-62.11523
		c3.57324-19.1499,7.3501-38.26758,11.02881-57.396c0.50977-2.65137,0.99707-5.30273,1.45215-7.96484
		c0.55762-3.2085,1.06543-6.42822,1.60742-9.63672c0.87305-5.20654,2.0459-10.38672,2.6084-15.61963l-119.58643,6.36328
		l-124.33691,195.5376c1.34717,0.50391,2.70264,0.98535,3.94775,1.70361
		C286.32617,363.39697,288.45557,364.67188,288.84375,366.17725z"/>
	<path fill="#231F20" d="M682.33984,641.52734c3.24609-0.41699,6.54492-1.3916,9.72266-1.09277
		c3.2832,0.31152,4.43457-1.2207,5.11035-3.70117c0.42285-1.55273,0.41211-3.22949,0.55664-4.8584
		c0.34277-3.85059,0.66406-7.71387,0.97949-11.57031c0.42383-5.1582,0.83594-10.31641,1.24805-15.47461
		c-0.37988-0.08594-0.76563-0.17676-1.15039-0.2627c-0.81445,1.01758-1.74707,1.95508-2.42188,3.05859
		c-5.97266,9.75391-11.84375,19.56738-19.32129,28.30371c-1.20508,1.39941-1.82715,3.30078-2.71582,4.97168
		c2.12695,0.2998,4.24805,0.63184,6.37988,0.88281C681.24707,641.84375,681.79883,641.59766,682.33984,641.52734z"/>
	<path fill="#231F20" d="M928.11133,133.13281l-98.49609,5.59814c1.35449,15.28174,2.87012,30.55908,2.76367,45.92725
		c-0.07031,10.29004-0.30566,20.58545-0.69141,30.86963c-0.18262,4.78369-1.03418,9.5459-1.34473,14.3291
		c-0.375,5.67822-0.55176,11.3667-0.70215,17.05029c-0.37988,13.98096-1.5752,27.93457,1.75195,41.86182
		c0.89453,3.74951-0.22461,8.77393-2.16895,12.22363c-2.91406,5.16895-6.85156,9.64697-8.82227,15.52344
		c-3.27344,9.73828-7.24805,19.24121-10.94922,28.83447c-2.32422,6.01025-4.5,12.09033-7.09277,17.98779
		c-3.20313,7.30615-6.9043,14.3877-10.11816,21.68311c-2.5127,5.69434-4.31152,11.70996-6.96387,17.33398
		c-3.40039,7.20996-5.83301,14.67188-8.02344,22.32666c-4.54785,15.83936-9.53516,31.56641-14.59082,47.25586
		c-6.33203,19.63721-15.25586,38.19287-24.38965,56.63525c-4.90137,9.88867-10.17285,19.60547-14.81152,29.61719
		c-2.58691,5.57617-4.7832,11.46289-6.16992,17.43555c-2.56641,11.06738-4.71387,22.25098-6.43848,33.47852
		c-1.06152,6.89355-1.15234,13.95313-1.40918,20.9502c-0.12305,3.24023,1.04492,4.02246,4.05566,2.79492
		c5.05078-2.05078,10.12793-4.15039,14.88477-6.78613c3.05469-1.69238,5.34668-0.57813,6.91602,1.32324
		c1.24707,1.51074,1.7998,4.16797,1.53711,6.16602c-0.24023,1.81445-0.05371,2.9502,0.9375,4.40723
		c4.26953,6.28418,8.51172,12.58789,12.48633,19.05469c1.83691,2.97754,2.80078,6.48633,4.58984,9.50195
		c4.05566,6.8457,0.76172,14.43066-4.43457,19.13867c-6.06348,5.49609-13.4502,8.28125-20.95996,10.87988
		c-3.19824,1.1084-6.41699,2.39453-9.72852,2.87109c-4.66504,0.6748-9.62012,0.74414-12.00977-4.52637
		c-2.28613-5.03516-4.81934-10.12402-5.93945-15.46484c-1.59668-7.59082-4.85352-14.19434-9.41211-20.2041
		c-1.25391-1.65039-3.59375-2.74316-5.65137-3.43945c-2.65039-0.89453-5.56543-0.98535-8.29688-1.67676
		c-4.7627-1.20508-9.40137-3.02148-14.48438-1.63965c-0.92188,0.25195-2.46973,0.03223-3.03711-0.59375
		c-1.48926-1.63477-2.72656-0.80371-4.00684-0.03223c-2.51172,1.51563-5.01855,3.05273-7.44043,4.70313
		c-6.7334,4.58496-14.05566,7.33301-22.2832,7.41797c-5.29297,0.05957-9.87207,1.36621-12.77539,6.42383
		c-0.87891,1.52539-2.58789,2.71484-4.15137,3.67383c-8.07715,4.93359-15.8877,10.51465-24.46875,14.35645
		c-7.11914,3.18652-15.08984,4.96973-22.8623,6.03613c-5.3457,0.72852-11.04297-0.60059-16.51172-1.41992
		c-15.2666-2.29688-27.7207-10.20898-39.11377-20.10352c-1.14648-0.99512-2.04639-2.36719-3.32129-3.12793
		c-6.2832-3.76563-12.96289-6.58789-19.95898-8.875c-18.58154-6.0752-37.04053-12.52441-55.56396-18.78613
		c-3.86719-1.30664-6.15967-3.57324-6.57764-7.91699c-0.43359-4.56934-2.75879-6.36426-7.41357-6.7168
		c-2.50732-0.1875-5.0249-0.36523-7.521-0.6543c-4.35449-0.50293-8.67188,2.15332-9.58252,6.46094
		c-1.09863,5.18457-1.73584,10.46582-2.63574,15.69434c-2.3999,13.87891-3.70117,28.00488-9.979,40.95703
		c-2.89795,5.97754-5.47461,12.10547-8.09912,18.20605c-0.7666,1.78418-0.89453,3.88379-1.82715,5.54492
		c-6.76514,12.0459-12.16943,24.7041-16.90527,37.65137c-0.73877,2.02441-1.02295,4.24316-1.32324,6.40137
		c-0.24609,1.7998-0.2085,3.3418,2.48584,3.55664c1.01221,0.08008,2.48535,1.92285,2.71045,3.1543
		c0.88379,4.78418,1.36035,9.63672,1.96045,14.46875c0.13379,1.07715,0.01563,2.19043,0.23584,3.24609
		c2.28174,10.90625,4.85303,21.75781,6.85107,32.71777c1.55322,8.53809-0.75537,11.73633-8.89697,14.03516
		c-2.52344,0.71191-5.08398,1.29004-7.59082,2.05078c-1.24316,0.38086-2.46387,0.91602-3.57861,1.58008
		c-7.18848,4.25391-14.45215,8.4043-21.47949,12.91504c-4.48389,2.88184-8.88135,6.02637-12.82373,9.60449
		c-4.66553,4.24219-8.71533,9.15918-13.21191,13.60547c-1.84814,1.82715-4.09521,3.27832-6.27783,4.72949
		c-1.9873,1.32422-4.12744,2.41699-6.20068,3.61035c-0.43945,0-0.87842,0-1.31787,0
		c-3.44385-1.00684-6.91504-1.92773-10.32422-3.03125c-4.66064-1.50488-8.4292-4.52637-12.44385-7.2207
		c-4.5498-3.05957-5.31104-8.14746-1.26709-11.79004c2.42432-2.17969,4.63916-4.61133,6.82471-7.03809
		c2.32227-2.57129,4.56348-5.22852,6.71973-7.93848c1.34473-1.69238,2.72412-3.43945,3.65039-5.36816
		c5.00342-10.43945,9.63135-21.06738,14.87549-31.37793c3.58643-7.06641,7.29053-13.96484,8.67725-21.89844
		c1.07178-6.12305,2.03027-12.3418,3.96436-18.21191c4.15137-12.61523,5.58691-25.72266,7.64404-38.70801
		c2.06738-13.05859,3.42822-26.23633,5.34033-39.32715c3.11768-21.29297,6.57227-42.53711,9.59912-63.8457
		c1.35498-9.52344,2.03516-19.13867,3.01025-28.7168c0.42822-4.23633,0.66406-8.50586,1.26953-12.71582
		c0.8999-6.33203,3.11816-12.40625,7.02783-17.32422c5.35156-6.72168,12.75391-11.4043,20.45117-14.84766
		c9.93701-4.44629,20.60205-6.32129,31.66846-4.58496c5.00342,0.78711,10.06494,0.74902,14.54346-2.24512
		c4.58545-3.06934,9.51855-3.4707,14.78955-2.3457c4.0874,0.87305,8.06738,1.31738,11.83252,3.92578
		c2.62451,1.82129,6.76025,1.52148,10.23633,2.04004c8.08887,1.21094,16.19336,2.32031,24.28711,3.52051
		c2.58691,0.38574,5.20117,0.75,7.72949,1.41895c9.70654,2.57715,19.38037,5.29199,29.08105,7.89648
		c1.4624,0.39551,3.02637,0.68457,4.52637,0.63184c3.30469-0.12891,4.91113-2.20215,3.99609-5.25488
		c-1.01172-3.375-2.52832-6.60547-3.45508-10.00098c-2.22314-8.09961-4.01709-16.32227-6.35254-24.38867
		c-5.9624-20.60156-13.79883-40.51172-22.91602-59.90771c-2.47461-5.26074-6.32617-9.93164-12.25586-10.95996
		c-8.27051-1.43555-16.77686-2.88721-25.07959-2.43213c-17.30713,0.94824-34.4165-0.63184-51.23047-3.74414
		c-17.02344-3.15479-33.65576-8.45264-50.45361-12.83447c-10.97607-2.86572-21.80176-6.62061-32.94336-8.43115
		c-10.42139-1.69824-21.16357-1.38721-31.76758-1.84277c-0.71484-0.03174-1.85596,0.75-2.13965,1.4248
		c-1.08691,2.63037-2.72119,2.7959-4.96582,1.59131c-4.20996-2.26074-8.11768-1.92871-12.41113,0.43359
		c-6.41162,3.5249-13.44775,5.17432-20.87451,4.66064c-0.83545-0.0542-1.72998,0.09082-2.52881,0.34766
		c-4.1001,1.29639-8.58643,0.92139-11.54785-1.81592l-84.74219,87.81689L0,488.02393
		C12.95752,607.44922,66.85547,714.59766,147.36816,795.1123c92.9209,92.9209,221.31299,150.39746,363.11816,150.39746
		c141.80273,0,270.18457-57.47656,363.11133-150.39746C966.51758,702.18555,1024,573.79883,1024,431.99902
		C1024,320.51221,988.46484,217.31738,928.11133,133.13281z"/>
	<path fill="#231F20" d="M593.44238,133.26123c-0.8623,4.25342-2.00488,8.45313-2.83984,12.71143
		c-1.44141,7.32275-5.7207,12.54492-11.50488,16.97461c-3.43945,2.63086-6.92188,5.53906-9.39648,9.021
		c-4.94922,6.97412-8.58594,14.7251-10.53027,23.146c-0.56836,2.44238-0.99707,4.92822-1.37207,7.41357
		c-1.30176,8.63477-3.72559,17.29639-3.56543,25.9043c0.29004,15.49658,2.14063,30.96094,3.35645,46.43652
		c0.19824,2.51221,0.37012,5.02979,0.75488,7.51514c2.21777,14.37207,2.42188,28.73828,0.12988,43.12109
		c-0.94434,5.90234-0.92676,5.90234,4.49316,8.45215c0.59473,0.27881,1.2002,0.53564,1.80078,0.80371
		c11.67676,5.2334,17.30176,15.51807,22.00488,26.52051c1.10352,2.58691,1.72949,5.37842,2.73145,8.01904
		c1.82129,4.8208,6.01465,7.32275,9.98438,10.08643c5.90332,4.11914,11.69922,8.38818,17.53223,12.604
		c0.55176,0.40137,1.03906,0.88916,1.76758,1.51563c0.38574-1.41357,0.77637-2.43115,0.94727-3.48682
		c1.89746-11.80615,7.92871-21.74219,14.94043-30.97168c3.13379-4.11963,8.07227-6.8457,12.0791-10.32764
		c12.38965-10.77197,26.68164-10.72412,40.11035-3.57324c13.39746,7.12939,23.30176,18.27686,24.70996,35.23096
		c1.19531-0.8252,2.16406-1.78369,2.62988-2.94678c1.84277-4.54785,5.96777-6.8291,9.47559-9.68457
		c2.8125-2.28174,5.89844-4.22119,8.84375-6.33691c1.3291-0.95361,2.76953-1.82666,3.89453-2.98877
		c0.86816-0.8999,1.67773-2.13184,1.89648-3.32666c0.83594-4.54785,0.73926-9.37402,2.22852-13.65918
		c3.0752-8.82764,6.20801-17.78418,10.70703-25.92041c3.65918-6.60498,8.61914-12.94727,14.35059-17.81641
		c5.14844-4.38184,5.22363-8.53857,4.11914-14.16797c-2.75195-14.05029-2.6084-28.03662,1.4043-41.94727
		c2.39355-8.28711,4.30664-16.72363,6.12207-25.16016c3.375-15.70557,6.53027-31.4541,9.74902-47.19189
		c1.5957-7.81006,2.9834-15.50195,2.30371-23.70313c-0.78223-9.4541-3.80371-17.44629-9.10156-24.3667l-106.13574-42.6709
		l-82.21777,51.02734c0.33789,0.39063,0.69141,0.771,1.00684,1.18359C593.33984,131.34912,593.60254,132.46338,593.44238,133.26123z
		"/>
</g>
<g>
</g>
<g>
</g>
<g>
</g>
<g>
</g>
<g>
</g>
<g>
</g>
</svg>
