<?xml version="1.0" encoding="utf-8"?>
<svg xmlns="http://www.w3.org/2000/svg" viewBox="0 0 16 16">
  <path d="M4.51 5.72c.02.08.08.1.14.1l.2.02c.07 0 .13.02.2.03l.46.04.5-.01h.73l.16-.01.51-.02c.08 0 .17-.03.24-.02.08.02.16.05.21.1.16.15.3.31.45.47l.16.2.17.28.33.55.11.17h.02c0-.1.04-.18-.02-.27-.03-.05-.04-.12-.08-.16l-.29-.33-.28-.34c-.12-.17-.17-.37-.25-.55A.54.54 0 008 5.74a.3.3 0 01-.14-.23 3.19 3.19 0 01-.02-.64c.03-.32.03-.65.09-.97L8.1 3l.02-.12.03-.15.04-.25-1.87.1L4.4 5.64l.06.02c.02.02.06.04.06.06zM10.66 10.02c.05 0 .1-.02.15-.01.06 0 .07-.02.08-.06l.01-.08.02-.18.02-.24h-.02l-.04.04c-.1.16-.19.31-.3.45l-.04.07.1.02h.02z"/>
  <path d="M14.5 2.08l-1.54.09c.02.24.05.48.05.72l-.01.48-.03.22v.27c-.01.22-.03.44.02.65a.3.3 0 01-.03.2c-.05.07-.11.14-.14.24l-.17.45-.11.28-.16.34-.11.27c-.05.1-.1.23-.13.35l-.22.73c-.1.31-.24.6-.39.89l-.23.46-.1.27-.1.53-.01.32c0 .05.01.07.06.05l.23-.1c.05-.03.08-.02.1.01.03.03.04.07.03.1 0 .03 0 .05.02.07l.2.3c.02.04.03.1.06.14.07.11.02.23-.07.3-.1.09-.2.13-.32.17l-.16.05c-.07 0-.15.01-.18-.07-.04-.08-.08-.16-.1-.24a.77.77 0 00-.14-.32.2.2 0 00-.1-.05c-.03-.02-.08-.02-.12-.03-.08-.02-.15-.05-.23-.02l-.05-.01c-.02-.03-.04-.02-.06 0l-.12.07a.61.61 0 01-.34.11c-.09 0-.16.03-.2.1a.21.21 0 01-.07.06c-.12.08-.25.17-.38.23-.11.05-.24.08-.36.1l-.25-.03a1.2 1.2 0 01-.62-.31l-.05-.05c-.1-.06-.2-.1-.31-.14l-.87-.3c-.06-.02-.1-.05-.1-.12 0-.07-.04-.1-.11-.1l-.12-.02a.14.14 0 00-.15.1l-.04.25c-.04.22-.06.44-.16.64l-.12.29c-.02.02-.02.06-.03.08-.1.19-.2.39-.27.6l-.02.1c0 .02 0 .04.04.05.02 0 .04.03.04.05.02.07.02.15.03.22v.05l.11.51c.03.14 0 .19-.14.22l-.11.04a.28.28 0 00-.06.02l-.34.2-.2.15-.2.21-.1.08-.1.05h-.02l-.16-.04c-.07-.03-.13-.07-.2-.12-.06-.04-.08-.12-.01-.18l.1-.1.1-.13a.45.45 0 00.07-.09l.23-.49c.05-.1.11-.22.13-.34l.07-.28c.06-.2.08-.4.11-.6l.09-.62.15-1 .04-.45.02-.2c.02-.1.05-.19.11-.27.09-.1.2-.18.32-.23.16-.07.33-.1.5-.07.08 0 .16 0 .23-.04a.28.28 0 01.23-.04c.06.02.12.02.18.07.04.02.1.02.16.03l.38.05.12.02.46.13h.07c.05 0 .08-.03.06-.07l-.05-.16-.1-.38c-.1-.32-.22-.63-.36-.94-.04-.08-.1-.15-.2-.17-.12-.02-.25-.04-.38-.04-.28.02-.54 0-.8-.06-.27-.04-.53-.13-.8-.2-.16-.04-.33-.1-.5-.13l-.5-.03-.04.03c-.01.04-.04.04-.07.02-.07-.04-.13-.03-.2 0a.58.58 0 01-.32.08h-.04c-.07.03-.14.02-.19-.02L2.21 8 0 7.63a8 8 0 007.98 7.14A8 8 0 0016 6.75c0-1.74-.55-3.35-1.5-4.67z"/>
  <path d="M9.27 2.08l-.04.2a.44.44 0 01-.18.27.7.7 0 00-.15.14 1.02 1.02 0 00-.18.47c-.03.14-.06.27-.06.4 0 .25.03.5.05.73l.01.12c.04.23.04.45 0 .68 0 .09 0 .09.08.13l.02.01c.19.08.27.24.35.41l.04.13c.03.08.1.11.16.16l.27.2c.01 0 .02 0 .03.02l.01-.06c.03-.18.13-.34.24-.48.05-.06.12-.1.18-.16.2-.17.42-.17.63-.06.21.11.37.29.39.55a.11.11 0 00.04-.04c.03-.07.1-.1.15-.15l.13-.1.07-.05a.1.1 0 00.03-.05c0-.07 0-.15.03-.21.05-.14.1-.28.17-.41a1 1 0 01.22-.28c.08-.07.08-.13.07-.22-.05-.22-.04-.44.02-.65l.1-.4.15-.73c.02-.13.04-.25.03-.38a.71.71 0 00-.14-.38l-1.66-.66-1.28.8.01.01c.01.01.02.03.01.04z"/>
</svg>
